<?xml version="1.0" encoding="UTF-8"?>
<svg id="Calque_1" data-name="Calque 1" xmlns="http://www.w3.org/2000/svg" viewBox="0 0 1024.39 817.84">
  <path d="M333.6,217.94c39.56-30.61,108.53-13.7,170.53,47.56,113.92-26.7,147.33-10.76,180.34,5.39,81.11-65.41,151.74-80.32,213.41-22-5.37,15.72-51.02,25.54-51.02,25.54,30,19.46,56.79,49.07,60.35,87.86-20.39,10.04-42.67,8.11-65.93,0,19.53,26.88,30.2,54.03,18.26,81.87-19.17,12.55-39.7-1.79-60.55-22.32-10.69,52.32-41.24,99.65-97.59,140.49l-238.99-56.3c-10.39-19.88-39.78-46.57-45.65-85.21-32.4,38.29-47.3,47.48-77.6,43.98-24.34-17.66-11.51-54.65,10.14-96.22-26.37,8.74-49.78,9.66-67.46-4.56-1.09-34.41,16.65-64.06,78.13-82.67-27.34-28.9-42.59-52.73-26.4-63.41Z" style="fill: #fff;"/>
  <path d="M252.66,269.88h-37.23c2.68,34.3-2.84,63.77-35.25,77.4l-19.53-1.27c-9,33.16-29.28,44.75-70.75,33.98-40.65,2.61-73.72-5.43-84.95-44.12,2.11-27.74,21.49-43.98,68.47-41.84,1.57-28.3,4.75-53.28,18.26-57.06,4.93-4.9,16.4-4.83,31.45-2.03,57.81-32.79,97.61-10.86,129.53,34.94Z" style="fill: #fff;"/>
  <path d="M701.41,565.22c53.77,33.12,66.49,91.45,51.76,166.63,0,0-32.33-8.75-38.62-34.23-77.15,36.14-112.39-57.44-112.39-57.44-40.3,44.44-72.58,61.2-94.72,42.98-23.31-28.94-26.17-63.32,12.93-92.05-62.28,10.52-93.24,5.08-96.24-23.2-6.04-25.64,10.08-45.52,43.74-60.86,25.46-34.86,67.93-48.84,129.56-39.33,47.71,11.09,79.86,47.71,103.97,97.51Z" style="fill: #fff;"/>
  <path d="M792.6,453.06c35.61,4.14,63.71,15.4,69.48,47.89,84.75,15.63,147.57,41.59,156.72,92.81,.05,91.56-43.43,148.1-123.75,174.98-9.78,24.94-25.03,39.45-44.89,45.14-28.17-8.69-49.88-27.35-68.22-51.23,20.17-13.18,35.44-26.03,68.22-35.38-44.38-116.78-112.71-174.23-141.88-166.99,51.27-47.72,77.41-82.45,84.32-107.23Z" style="fill: #eba81b;"/>
  <path d="M685.46,707.88l29.09-10.27c5.08,17.56,17.43,29.39,38.62,34.23,22.89-88.1-10.25-130.44-44.89-171.55,52,8.58,98.72,70.03,141.88,166.99-43.64,18.56-82.19,37.62-116.78,57.06-21.09-8.99-36.78-35.39-47.93-76.46Z" style="fill: #ff0f23;"/>
  <path d="M415.76,210.95l36.52-61.26c-23.2-3.63-82.92,34.78-92.05-32.16-4.98-46.22,72.49-103.46,95.48-93.96,31.19,16.36,20.2,73.25,24.73,76.84,28.15-42.22,63.27-46.03,63.27-46.03,15.46-38.39,50.55-55.09,108.28-46.79,0,0,30.43,6.85,31.19,27.39,.76,20.54-36.52,24.34-36.52,24.34l11.03,11.79c8.72,1.5,17.74,9.01,35.38,29.67,12.8-56.37,5.71-54.4,33.85-70.75,41.17-13.36,74.9,38.04,71.89,72.74-3.01,34.7-17.95,50.52-35.38,56.98-20.54,7.61-42.98-14.84-42.98-14.84,.59,10.48,11.08,41.51,29.64,82.92-31.96,11.13-51.07,24.87-65.78,39.51-60.99-18.01-121.01-17.81-180.18-1.85-21.2-26.85-48.33-46.29-86.47-51.95l-1.9-2.6Z" style="fill: #7ac6df;"/>
  <g>
    <path d="M643.37,114.48c-28.66,0-34.22,34.91-40.08,66.99-5.86,32.08-2.66,70.33-2.66,70.33,0,0,30.81-1.52,60.48,8.37,10.27-26.25,14.45-56.4,17.12-73.03,2.67-16.64-6.2-72.65-34.86-72.65Z" style="fill: #fff;"/>
    <path d="M538.63,103.45c-27.01,6.63-36.21,54.64-34.23,80.64,1.98,26,12.17,60.86,21.3,76.08,25.58-7.99,49.07-6.47,49.07-6.47,0,0,10.98-59.31,7.99-86.35-3-27.04-17.12-70.53-44.12-63.9Z" style="fill: #fff;"/>
  </g>
  <path d="M602.55,412.08c-53.39,0-93.75-47.69-106.65-77.76-6.72-15.65-7.19-28.19-1.3-34.38,17.3-18.19,54.1-29.06,98.45-29.06s97.43,12.61,110.21,40.79c4.31,9.5-.68,27.69-12.7,46.35-16.84,26.13-48.81,54.06-88.01,54.06Z" style="fill: #888;"/>
  <g>
    <path d="M168.09,208.93c-22.74,0-37.76,8.97-46.72,20.91-9.48-4.12-29.54-4.81-44.29,13.96-5.12,6.52-7.95,22.83-8.98,42.02-16.36-4.9-64.43,14.73-67.57,37.93-5.68,42.01,35.43,68.2,71.45,64.64,5.96-.59,12.78-.83,18.95-1.15,24.88,8.56,63.84-6.18,71.21-20.97,2.92-5.85,2.73-13.8,.92-16.28,5.17,2.89,10.32,4.27,15.24,3.52,35.48-5.38,65.45-83.56,20.41-110.58-17.01-10.21-20.41-1.7-13.61,1.7,47.63,23.82,15.31,95.27-10.21,93.56-25.52-1.7-49.33-51.04-51.04-69.75-1.7-18.71-.85-39.98,38.28-43.38,39.13-3.4,75.7,33.17,80.81,38.28s11.91,11.91,11.91,0-40.83-54.44-86.76-54.44ZM12.44,325.46c7.63-15.99,37.02-26.22,55.23-26.27-.37,29.44,2.84,61.69,8.04,75.24-30.06,11.26-75.02-24.32-63.26-48.97Zm149.32,23.79c-2.44,.11-8.29,6.28-11.52,10.24-12.23,14.99-45.82,24.48-62.94,10.21-10.21-8.51-7.28-108.91-3.4-117.38,4.56-9.97,24.85-18.4,30.62-11.91,.14,.16,.34,.3,.56,.45-4.07,9.61-5.19,19.87-3.96,28.47,2.76,19.29,26.72,65.38,50.65,79.92Z"/>
    <path d="M602.74,415.62c68.66,0,115.48-82.94,105.47-105.47-22.68-51.05-176.37-58.18-219.45-11.91-18.14,19.48,37.43,117.38,113.98,117.38Zm-105.68-113.2c39.87-41.94,182.11-35.48,203.1,10.79,9.26,20.42-34.07,95.6-97.61,95.6-70.85,0-122.27-88.74-105.49-106.39Z"/>
    <path d="M390.06,133c3.99,10.14,41.01,3.55,41.01,3.55,18.05,1,37.25-13.3,33.47-13.19-31.44,.95-36.44,9.62-56.8-7.61-17.31-14.65-13.03-43.27-14.71-43.11-1.8,.17-9.72,33.55,11.16,52.75,3.46,3.18,7.15,5.45,10.67,7.07-3.31,1.4-10.25,2.38-24.79,.54Z"/>
    <path d="M776.46,64.03c-9.64,6.09-1.16,25.93-15.72,41.63-17.49,18.86-44.91,17.06-44.63,20.76,.2,2.66,12.46,4.26,27.9,2.51,21.21-2.41,40.59-12.55,40.07-14.18-.46-1.44-24.98,5.33-19.27,0,15.22-14.2,13.76-52.04,11.67-50.72Z"/>
    <path d="M1016.87,574.76c-27.45-52.18-85.21-63.9-151.65-77.6-1.66-6.49,1.72-14.04-5.58-20.79-14.91-13.79-45.46-22-58.52-25.6,2.14-7.23,3.16-14.31,2.73-21.06,10.65,5.07,24.85,38.04,56.3,20.29,13.12-7.41,6.59-63.4-12.17-83.18,17.75,8.62,59.34,13.69,61.37-12.17,3.38-43.09-40.07-64.41-54.27-77.09,41.08-10.2,43.98-19.49,44.63-31.95,1.01-19.27-59.18-44.56-118.68-34.09-9.47,1.67-19.04,4.64-28.27,8.38-10.03-20.75-32.65-64.03-28.54-67.6,2.07-1.79,10.68,11.21,25.87,13.19,16.53,2.15,32.65-9.83,41.08-20.79,12.7-16.52,11.52-35.37,10.65-49.2-.79-12.61-3.14-50.06-31.45-66.95-3.16-1.88-23.18-13.83-43.11-5.07-20.56,9.03-28.18,34.45-24.85,37.02,4.05,3.12,21.56-29.61,46.66-28.4,21.23,1.02,39.01,25.89,44.63,47.17,5.19,19.65,3.99,51.23-17.75,65.93-11.18,7.56-31.39,13.1-44.12,5.07-5.06-3.19-8.65-8.34-11.67-7.1-3.42,1.4-3.18,9.82-2.54,16.74,2.32,24.87,19.31,39.02,27.58,63.25-29.76,13.59-54.61,33.88-59.1,41.38-5.76-3.12-12.86-6.32-21.7-9.12,7.15-9.6,14.87-35.92,16.71-63.56,2.85-42.97-14.2-81.15-37.53-81.15s-33.52,26.72-40.57,53.25c-9.02,33.93-3.88,73.91-3.59,73.54,12.17-15.72,4.1-18.94,8.16-52.74,4.56-38.04,23.42-64.39,33.46-66.77,16.1-3.82,37.27,27.74,33.99,71.34-2.45,32.53-12.04,55.15-15.16,64.74-2.98-.84-6.14-1.63-9.5-2.35,3.36-4.28,4.79-9.62,5.82-18.3,2.56-21.58-4.27-40.12-15.26-41.43-10.99-1.3-20.91,13.53-23.47,35.1-.94,7.92-.9,15.13,1.07,20.42-7.76-.46-16.2-.61-25.38-.37-9.88,.26-19.11,.86-27.74,1.72,2.67-6.6,2.63-15.91,2.04-25.11-1.4-21.68-11.48-38.68-22.52-37.97s-18.86,18.87-17.46,40.55c.63,9.84,2.57,21.12,7.13,27.04-3.56,.71-6.98,1.45-10.25,2.23-4.17-14.88-17.92-56.32-11.11-96.19,3.77-22.07,11.14-47.61,28.4-48.69,19.03-1.18,31.95,24.85,35,40.57,6.64,34.3,.28,79.24,1.41,78.67,6.03-3.04,12.21-45.64,3.76-84.91-4.66-21.66-21.62-47.26-41.68-45.5-21.45,1.88-39.06,43.11-39.06,74.56,0,49.43,12.1,72.05,19.79,82.34-5.84,1.47-11.21,3.03-16.09,4.63-3.04-15.63-39.59-42.1-80.8-55.37,0,0,20.08-34.84,22.13-45.8,3-4.07,8.54-12.94,7.31-15.22-3.32-6.15-42.76,21.2-67.96,7.1-16.66-9.32-19.36-32.42-19.78-37.02-3.47-38.38,37-64.42,52.75-74.56,16.36-10.53,24.2-10.28,28.91-9.13,15.73,3.84,22.98,24.16,24.85,29.42,8.45,23.69,.37,43.36,5.58,45.14,3.85,1.31,8.48-9.35,21.3-22.32,9.4-9.51,23.06-19.15,32.84-25.2-3.28,4.29-5.23,6.74-9.51,10.49-35.14,30.84-47.14,92.31-34.49,88.25,8.56-7.61,2.22-38.51,28.4-69.48,7.69-9.09,28.25-11.25,27.39-14.71-3.04-12.17,7.17-22.86,14.71-31.44,14.51-16.51,12.1-23.17,18.47-19.01,20.59,13.43,11.25-14.54,68.76-10.41,17.46,1.26,36.41,12.1,30.94,23.84-17.24,37.02-62.38,2.03-75.06,4.56-7.33,1.47,14.01,15.49,37.62,19,3.05,2.08,6.33,5.04,8.58,9.38,3.88,7.46,3.21,16.35-2.26,23.92-8.18,11.31-28.46,9.31-40.72,2.26-12.14-6.98-12.91-15.3-28.12-19.07-2.17-.54-5.2-1.29-6.14,0-2.71,3.73,11.56,25.26,32.64,32.32,19.31,6.47,46.15,1.39,54.94-15.51,.26-.5,3.73-7.47,3.04-15.72,7.09,2.05,17.33,7.56,21.2,23.48,.99,4.06-19.52-1.22-15.19,1.94,14.9,10.88,21.38,16.62,25.53,43.63,10.04-31.58-12.52-36.9-9.05-40.08,3.75-3.43,13.7,3.61,15.19-2.91,4.17-18.26,4.29-40.14,2.27-39.97-1.94,.17-7.23,36.67-9.51,32.87-11.6-19.34-24.94-26.4-32.48-26.72-.22-.47-.42-.94-.68-1.41-1.76-3.2-4.16-5.71-6.81-7.66,13.09-.47,25.45-5.41,32.61-18.74,5.23-9.75-5-24.63-9.13-28.4-26.66-24.37-95.25-10.45-118.68,12.68-7.71,7.61,.7,1.7-12.68,17.75-2.97,3.57-5.27,6.44-7.18,8.87-9.76,2.15-28.69,11.04-54.19,40.83-4.82,5.64,3.81-18.71-2.54-41.08-1.42-5-8.54-27.63-25.36-32.46-11.61-3.34-22.08,3.47-39.56,15.22-16.2,10.89-41.44,27.85-53.76,60.35-4.48,11.82-9.12,24.06-4.56,38.04,6.72,20.64,28.15,28.63,32.97,30.43,17.51,6.54,54.78-24.85,54.78-1.52,0,0,.01,0,.02,0-18.96,33.27-30.25,40.86-30.25,40.86-31.99-8.43-65.37-8-87.18,12.13-19.78,18.26,2.28,47.34,21.3,59.51-50.97,32.71-72.27,43.21-72.27,81.99s54.78,22.82,73.03,16.74c-19.78,16.63-45.72,84.67-17.5,92.81,55.53,16.02,67.63-30.14,83.68-35.76,1.4,18.7,26.85,63.24,41.62,74.68-.9,1.07-1.37,1.76-1.3,1.9,.53,1.06,1.13,1.86,1.79,2.45-21.94,11.55-37.6,28.87-40.84,52.33-3.09,22.34,30,37.84,32.97,38.55,17.98,4.3,39.8,1.49,59.42-3.79-10.42,10.23-18.9,23.24-23.44,39.93-6.51,23.95,15.99,57.3,37.56,59.72,31.57,3.54,59.85-36.01,77.6-49.2,3.55,15.72,29.01,50.12,62.89,61.88,6.65,2.31,13.51,3.12,20.22,2.86,2.45,12.32,15.65,69.26,51.8,78.29,8.88-6.15,24.68-14.83,41.71-23.65,12.16,17.29,48.12,56.64,78.17,51.17,1.32-.24,2.49-.54,2.85-.64,23.59-6.24,33.69-32.9,40.57-45.14,26.37,6.09,52.37-22.32,82.16-52.24,32.26-32.4,56.41-105.77,36.01-144.55ZM628.18,212.17c1.02-5.51,5.19-9.36,9.32-8.59,4.13,.76,6.66,5.85,5.64,11.35-1.02,5.51-5.19,9.36-9.32,8.59-4.13-.76-6.66-5.85-5.64-11.35Zm-84.52-14.37c4.2,0,7.61,4.54,7.61,10.14s-3.41,10.14-7.61,10.14-7.61-4.54-7.61-10.14,3.41-10.14,7.61-10.14Zm-127.05,217.82s-56.46,63.12-77.6,41.98c-25.87-25.87,24.34-72.27,17.5-100.42-42.73,18.04-59.7,10.46-67.71-4.56-8.14-15.26,25.87-49.29,79.12-78.19-105.02-76.53,60.04-87.99,131.72-11.63-16.84,5.98-27.29,12.1-32.28,15.26-11.16,7.07,56.42-22.24,125.78-21.81,69.36,.43,123.42,27.71,112.31,20.79-3.45-2.15-8.24-6.05-15.48-10.34,14.87-5.37,41.06-37,90.54-44.94,52.47-8.42,107.93,11.58,108.54,24.85,.53,11.74-29.42,20.74-52.24,23.84-8.29,11.93,65.46,41.08,60.86,82.16-1.48,13.25-33.47,11.95-61.88,2.54,2.86,21.98,33.7,60.47,13.19,82.67-6.72,7.28-21.3-1.01-57.82-32.46,6.07,79.39-71.78,135.21-89.54,151.68-10.24-21.75-25.24-45.63-45.9-63.42,13.51-26.86,18.35-29.25,26.84-73.5,22.83-16,61.45-48.4,60.87-81.19-.27-15.31-3.06-18.55,5.12-31.45,5.12-8.06,11.83-9.2,21.81-8.12,18.32,1.99,25.54,24.5,29.7,22.7,3.22-1.39,2.68-14.37-8.51-25.52-12.77-12.73-32.52-14.64-42.53-5.1-6.45,6.15-10.77,15.94-13.66,11.98-6.4-8.76-21.04-19.37-22.06-18.79-.81,.46,10.05,12.9,13.61,23.82,7.75,23.77-.91,46.74-5.1,57.84-15.24,40.39-107.21,74.43-129.29,73.15-81.52-4.74-139.65-86.82-138.13-136.53,.5-16.35-11.86-22.43-24.5-21.47-26.88,2.03-48.2,23.45-45.09,33.65,1.12,3.66,15.73-7.9,17.53-11.5,5.1-10.21,22.36-13.23,31.98-10.45,5.77,1.67,7.64,13.99,7.9,19.41,3.28,66.81,60.06,110.45,107.56,127.13,.21,3.41,.89,9.46,2.9,19.45-42.88,1.04-77.03,27.19-90.74,40.32-30.44-39.11-38.02-63.36-45.33-83.82Zm247.76,281.88c-34.8-13.16-54.09-41.59-59.34-69.99-21.3,14.71-51.84,62.29-81.92,59.32-19.69-1.94-26.78-31.63-21.55-52.73,9.68-39.04,73.03-56.8,93.32-67.45,.28-.14,.89-9.1-3.55-8.11-13.19,2.93-34.61,7.67-55.04,18.24-24.56,8.67-61.16,21.97-83.93,15.23-3.13-.92-23.61-16.41-23.81-35.18-.3-28.83,49.88-53.73,104.06-55.61,41.87-1.45,73.42,20.29,79,9.64,.6-1.15-32.17-19.23-73.03-19.27-21.12-.02-42.23,2.96-60.85,9.06,17.63-13.36,45.59-35.29,87.73-32.72,36.82,2.25,62.39,14.41,72.53,21.63,63.41,45.14,63.41,127.3,81.15,123.75,1.41-.28-2.04-19.06-11.77-43.09,13.13,10.76,41.73,29.14,48.29,99.39,2.48,26.58,0,44.11-4.37,55.88-19.43,.82-27.67-16.42-30.7-25.85,9.84-6.31,15.22-13.45,12.24-16.84-13.27-15.11-34.31,27.62-68.47,14.71Zm111.85,59.57c-1.08,.18-2.18,.58-3.31,1.29-.08,.09-.08,.27-.03,.53-12.2,6.66-25.08,14.27-38.01,22.8-34.07-20.11-41.56-57.49-43.18-71.02,8.36-1.36,16.23-4.19,22.85-7.58,2.09,17.86,22.29,26.45,33.36,29.83-8.3,14.97-19.71,16.75-21.15,19.35-2.54,4.56,6.34,8.62,6.34,8.62,0,0,35.25-5.58,28.66-91.29-4.93-64.08-34.52-93.57-49.14-104.38,5.45,.1,11.55,.18,15.67,1.93,20.36,8.66,35.58,29.4,66.95,70.5,14.59,19.12,35.4,46.39,49.05,88.18-9.3,3.48-36.03,14.02-68.05,31.24Zm197.02-47.9c-20.26,27.53-53.25,54.27-79.12,55.79-23.54,21.43-33.74,45.45-49.7,41.59-32.96-7.97-47.04-34.3-58.31-45.01,25.65-13.02,51.85-25.4,60.16-29.3,1.53,5.12,2.95,10.43,4.23,15.98,1.74,7.5,7.24,28.9-.51,36.01-7.72,7.08-21.51,2.64-21.81,4.56-.33,2.08,15.31,10.21,25.36,4.56,9.69-5.44,9.21-25.48,8.11-33.47-11.02-80.29-95.51-182.25-122.23-196.28-4.95-2.6-15.11-8.72-24.89-8.85,4.01-2.67,8.55-6.02,13.39-9.89,10.44,1.78,38.7,5.46,103.81,8.09,3.04-13.22,16.23-4.56,10.14-13.69-32.97-3.04-47.17,0-47.17,0,0,0,7.87-20.29,33.98-30.43,1.52-5.58,0-15.41-10.14-12.68-18.77,9.13-22.32,22.82-31.95,43.62-13.95,3.99-38.22-1.42-47.99-3.92,22.05-19.55,47.01-47.45,58.67-74.56,6.52,2.56,19.15-.18,31.84,6.68,17.43,9.43,28.48,23.11,26.89,36.55,79.19,18,124.85,30.1,155.27,74.8,15.14,22.25-3.87,83.4-38.04,129.84Z"/>
  </g>
  <path d="M650.13,487.64c20.62-23.58,14.41-32.71,14.41-32.71-28.46-5.41-45.73,1.24-55.16,16.36,0,0,18.74,3.42,40.75,16.36Z" style="fill: #ff2a96;"/>
</svg>